<svg xmlns="http://www.w3.org/2000/svg" width="15.96" height="15.961" viewBox="0 0 15.96 15.961"><defs><style>.a{fill:#4253b5;}</style></defs><path class="a" d="M17.965,15.006a1.364,1.364,0,0,0-.967.4c-.229.229-.492.5-.693.7a2.278,2.278,0,0,0-.53.861l-.36,1.053-.25.73-.117.343a.911.911,0,0,0,0,.587h0a19.844,19.844,0,0,0,4.492,6.744l.017.016a19.84,19.84,0,0,0,6.727,4.476.91.91,0,0,0,.587,0l.343-.117.73-.25L29,30.192h0a2.279,2.279,0,0,0,.86-.529c.206-.2.472-.464.7-.693a1.371,1.371,0,0,0,0-1.935L28.51,24.983a1.371,1.371,0,0,0-1.935,0c-.269.269-1.251,1.257-2.04,2.05A13.31,13.31,0,0,1,21.166,24.8h0a13.318,13.318,0,0,1-2.231-3.37c.794-.789,1.781-1.771,2.05-2.04a1.372,1.372,0,0,0,0-1.935h0l-2.052-2.052A1.364,1.364,0,0,0,17.965,15.006Zm0,.453a.909.909,0,0,1,.645.269l2.052,2.052a.908.908,0,0,1,0,1.29l-.148.147-1.671-1.671a.114.114,0,1,0-.161.161l1.67,1.67L18.491,21.23a.228.228,0,0,0-.042.265,14.115,14.115,0,0,0,2.394,3.629,14.109,14.109,0,0,0,3.629,2.394.228.228,0,0,0,.265-.042c.811-.816,1.877-1.889,2.16-2.171a.909.909,0,0,1,1.29,0l2.052,2.052a.908.908,0,0,1,0,1.29l-.148.147-1.67-1.67a.114.114,0,1,0-.161.161l1.669,1.669-.387.383h0a1.822,1.822,0,0,1-.689.423l-1.054.361-.729.249-.341.116h0a.45.45,0,0,1-.292,0h0A19.578,19.578,0,0,1,19.865,26.1a19.577,19.577,0,0,1-4.383-6.571.452.452,0,0,1,0-.293h0L15.6,18.9l.249-.729.361-1.054a1.82,1.82,0,0,1,.423-.689h0c.2-.2.462-.47.689-.7A.909.909,0,0,1,17.965,15.459ZM17.85,16.6a.114.114,0,0,0-.079.2l.456.456a.114.114,0,1,0,.161-.161l-.456-.456A.114.114,0,0,0,17.85,16.6Zm9.577,9.577a.114.114,0,0,0-.079.2l.456.456a.114.114,0,1,0,.161-.161l-.456-.456A.114.114,0,0,0,27.427,26.177Z" transform="translate(-15.001 -15.006)"/></svg>